<?xml version="1.0" encoding="utf-8"?>
<!-- Generator: Adobe Illustrator 24.0.1, SVG Export Plug-In . SVG Version: 6.00 Build 0)  -->
<svg version="1.1" id="Camada_1" xmlns="http://www.w3.org/2000/svg" xmlns:xlink="http://www.w3.org/1999/xlink" x="0px" y="0px"
	 viewBox="0 0 1920 1080" style="enable-background:new 0 0 1920 1080;" xml:space="preserve">
<style type="text/css">
	.st0{fill:#00A99D;stroke:#00A99D;stroke-miterlimit:10;}
	.st1{stroke:#00A99D;stroke-miterlimit:10;}
	.st2{fill:#FFFFFF;stroke:#00A99D;stroke-miterlimit:10;}
</style>
<g>
	<rect x="0.6" y="3.8" class="st0" width="1237.2" height="1075.7"/>
	<path class="st1" d="M1237.3,4.3V1079H1.1V4.3H1237.3 M1238.3,3.3H0.1V1080h1238.2V3.3L1238.3,3.3z"/>
</g>
<g>
	<polygon class="st2" points="580.7,989.6 567.4,986.6 567.5,986.3 375.9,937.5 366.5,966.1 274.7,935.7 305.1,843.9 396.9,874.3 
		383.6,914.4 572.9,962.5 620.4,756 425.9,756 232.7,421.2 277.1,344.1 232.1,344.1 232.1,162.9 381.8,162.9 425.9,86.4 812.6,86.4 
		856.7,162.9 1012.5,162.9 1012.5,351.2 965.4,351.2 1005.8,421.2 812.6,756 647.8,756 598.9,969.2 599.4,969.3 593.7,991.7 
		593.5,992.7 593.4,992.9 	"/>
	<path class="st1" d="M812.3,86.9l43.9,76l0.3,0.5h0.6H1012v187.3h-45.6h-1.7l0.9,1.5l39.9,69l-193,334.3h-164h-0.8l-0.2,0.8
		l-48.7,212.3l-0.2,1l0.5,0.1l-5.6,22.1l-0.1,0.3l0,0l-0.1,0.3l-12.3-3.1l-12.7-2.9l0.1-0.3l-1-0.2l-190.6-48.4l-0.9-0.2l-0.3,0.9
		l-9.2,27.6l-90.8-30.1l30.1-90.8l90.8,30.1l-12.9,39.1l-0.3,1l1,0.3L572.4,963l1,0.3l0.2-1l47.1-205.4l0.3-1.2h-1.3H426.2
		l-193-334.5l43.9-76l0.9-1.5h-1.7h-43.7V163.4h148.9h0.6l0.3-0.5l43.8-76H812.3 M812.9,85.9H425.6l-44.2,76.5H231.6v182.3h44.7
		l-44.2,76.5l193.6,335.3h194l-47.1,205.4l-188.3-47.8l13.3-40l-92.7-30.7l-30.7,92.7l92.7,30.7l9.5-28.5l190.5,48.3l-0.1,0.3
		l13.7,3.1l13.3,3.3l0.1-0.3l0,0l0.3-1.3l5.8-23l-0.5-0.1l48.7-212.3h164.6l193.6-335.3l-40.1-69.5h46.6V162.4h-156L812.9,85.9
		L812.9,85.9z"/>
</g>
<g>
	<rect x="367" y="273.7" class="st0" width="119.8" height="111.4"/>
	<path class="st1" d="M486.3,274.2v110.4H367.5V274.2H486.3 M487.3,273.2H366.5v112.4h120.8V273.2L487.3,273.2z"/>
</g>
<g>
	<rect x="762.7" y="273.7" class="st0" width="111.8" height="111.8"/>
	<path class="st1" d="M874,274.2v110.8H763.2V274.2H874 M875,273.2H762.2v112.8H875V273.2L875,273.2z"/>
</g>
<g>
	<path class="st0" d="M622.3,679.5c-48.8,0-95.8-9.8-131.9-27.6c-35.6-17.5-58.2-41.3-63.6-67.1h391.1c-5.4,25.8-28,49.5-63.6,67.1
		C718,669.7,671.1,679.5,622.3,679.5z"/>
	<path class="st1" d="M817.2,585.3c-5.6,25.4-28,48.8-63.2,66.1c-36.1,17.7-83,27.6-131.7,27.6s-95.6-9.8-131.7-27.6
		c-35.1-17.3-57.6-40.7-63.2-66.1H817.2 M818.4,584.3H426.1c10.8,53.8,94.5,95.7,196.2,95.7S807.6,638.1,818.4,584.3L818.4,584.3z"
		/>
</g>
</svg>
