<?xml version="1.0" encoding="utf-8"?>
<!-- Generator: Adobe Illustrator 24.0.1, SVG Export Plug-In . SVG Version: 6.00 Build 0)  -->
<svg version="1.1" id="Camada_1" xmlns="http://www.w3.org/2000/svg" xmlns:xlink="http://www.w3.org/1999/xlink" x="0px" y="0px"
	 viewBox="0 0 1920 1080" style="enable-background:new 0 0 1920 1080;" xml:space="preserve">
<style type="text/css">
	.st0{fill:#00A99D;stroke:#00A99D;stroke-miterlimit:10;}
	.st1{stroke:#00A99D;stroke-miterlimit:10;}
	.st2{fill:#FFFFFF;stroke:#00A99D;stroke-miterlimit:10;}
</style>
<g>
	<rect x="376.5" y="7.5" class="st0" width="1224.9" height="1065"/>
	<path class="st1" d="M1600.9,8v1064H377V8H1600.9 M1601.9,7H376v1066h1225.9V7L1601.9,7z"/>
</g>
<g>
	<polygon class="st2" points="950.7,986.5 937.5,983.5 937.6,983.2 747.3,934.8 738,963.2 646.8,933 677,841.8 768.2,872 755,911.8 
		943,959.6 990.1,754.5 797,754.5 605.1,422 649.2,345.5 604.5,345.5 604.5,165.5 753.2,165.5 797,89.5 1181,89.5 1224.8,165.5 
		1379.5,165.5 1379.5,352.5 1332.8,352.5 1372.9,422 1181,754.5 1017.4,754.5 968.8,966.2 969.3,966.3 963.6,988.6 963.4,989.6 
		963.3,989.8 	"/>
	<path class="st1" d="M1180.7,90l43.6,75.5l0.3,0.5h0.6H1379v186h-45.3h-1.7l0.9,1.5l39.6,68.5l-191.7,332h-162.9h-0.8l-0.2,0.8
		l-48.4,210.8l-0.2,1l0.5,0.1l-5.6,21.9l-0.1,0.3h0l-0.1,0.3l-12.2-3.1l-12.6-2.9l0.1-0.3l-1-0.2l-189.3-48.1l-0.9-0.2l-0.3,0.9
		l-9.1,27.4l-90.2-29.9l29.9-90.2l90.2,29.9l-12.8,38.8l-0.3,1l1,0.3l187,47.5l1,0.3l0.2-1l46.8-204l0.3-1.2h-1.3H797.3L605.6,422
		l43.6-75.5l0.9-1.5h-1.7H605V166h147.9h0.6l0.3-0.5L797.3,90H1180.7 M1181.3,89H796.7l-43.9,76H604v181h44.4l-43.9,76l192.3,333
		h192.7l-46.8,204l-187-47.5l13.2-39.7l-92.1-30.5l-30.5,92.1l92.1,30.5l9.4-28.3L937,983.6l-0.1,0.3l13.6,3.1l13.2,3.3l0.1-0.3l0,0
		l0.3-1.3l5.8-22.8l-0.5-0.1l48.4-210.8h163.5l192.3-333l-39.8-69h46.3V165h-154.9L1181.3,89L1181.3,89z"/>
</g>
<g>
	<rect x="738.5" y="275.5" class="st0" width="119" height="110.6"/>
	<path class="st1" d="M857,276v109.6H739V276H857 M858,275H738v111.6h120V275L858,275z"/>
</g>
<g>
	<rect x="1131.5" y="275.5" class="st0" width="111" height="111"/>
	<path class="st1" d="M1242,276v110h-110V276H1242 M1243,275h-112v112h112V275L1243,275z"/>
</g>
<g>
	<path class="st0" d="M992,678.5c-48.5,0-95.1-9.7-131-27.4c-35.4-17.4-57.8-41-63.2-66.6h388.4c-5.4,25.6-27.8,49.2-63.2,66.6
		C1087.1,668.8,1040.5,678.5,992,678.5z"/>
	<path class="st1" d="M1185.6,585c-5.6,25.2-27.8,48.5-62.8,65.6c-35.9,17.6-82.4,27.4-130.8,27.4s-94.9-9.7-130.8-27.4
		c-34.9-17.2-57.2-40.4-62.8-65.6H1185.6 M1186.8,584H797.2c10.7,53.4,93.8,95,194.8,95S1176.1,637.4,1186.8,584L1186.8,584z"/>
</g>
</svg>
